<svg width="454" height="241" viewBox="0 0 454 241" fill="none" xmlns="http://www.w3.org/2000/svg">
<path d="M22.2057 111.145L72.4523 60.2014L64.9942 10.4457L14.7475 61.3896L22.2057 111.145Z" fill="#0E0C0F" stroke="#0B090B" stroke-miterlimit="1"/>
<path d="M22.2057 111.145L72.4523 60.2014L439.476 179.739L389.23 230.683L22.2057 111.145Z" fill="#151316" stroke="#0B090B" stroke-miterlimit="1"/>
<path d="M72.4523 60.2013L64.9942 10.4457L432.018 129.984L439.476 179.739L72.4523 60.2013Z" fill="#19161A" stroke="#0B090B" stroke-miterlimit="1"/>
<path d="M14.7476 61.3895L64.9942 10.4457L432.018 129.984L381.772 180.927L14.7476 61.3895Z" fill="#1C191E" stroke="#0B090B" stroke-miterlimit="1"/>
<path d="M14.7476 61.3895L22.2058 111.145L389.23 230.683L381.772 180.927L14.7476 61.3895Z" fill="#231F25" stroke="#0B090B" stroke-miterlimit="1"/>
<path d="M389.23 230.683L439.476 179.739L432.018 129.984L381.772 180.927L389.23 230.683Z" fill="#201C21" stroke="#0B090B" stroke-miterlimit="1"/>
</svg>
