<svg width="325" height="356" viewBox="0 0 325 356" fill="none" xmlns="http://www.w3.org/2000/svg">
<path d="M274.474 70.029L137.237 160.139L101.053 320.278L238.29 230.168L274.474 70.029Z" fill="#272C28" stroke="#1D211E" stroke-miterlimit="1"/>
<path d="M274.474 70.029L137.237 160.139L86.7104 125.125L223.947 35.0145L274.474 70.029Z" fill="#3B423B" stroke="#1D211E" stroke-miterlimit="1"/>
<path d="M137.237 160.139L101.053 320.278L50.5264 285.263L86.7104 125.124L137.237 160.139Z" fill="#454D45" stroke="#1D211E" stroke-miterlimit="1"/>
<path d="M238.29 230.168L101.053 320.278L50.5264 285.263L187.763 195.153L238.29 230.168Z" fill="#4E584F" stroke="#1D211E" stroke-miterlimit="1"/>
<path d="M238.29 230.168L274.474 70.0288L223.947 35.0144L187.763 195.153L238.29 230.168Z" fill="#626E63" stroke="#1D211E" stroke-miterlimit="1"/>
<path d="M223.947 35.0145L86.7104 125.124L50.5264 285.263L187.763 195.153L223.947 35.0145Z" fill="#586359" stroke="#1D211E" stroke-miterlimit="1"/>
</svg>
