<svg width="489" height="490" viewBox="0 0 489 490" fill="none" xmlns="http://www.w3.org/2000/svg">
<path d="M313.942 423.907L244.451 244.918L58.32 197.786L127.811 376.775L313.942 423.907Z" fill="#504748" stroke="#3C3536" stroke-width="1.23994" stroke-miterlimit="1"/>
<path d="M313.942 423.908L244.451 244.918L361.091 113.061L430.582 292.05L313.942 423.908Z" fill="#8C7D7D" stroke="#3C3536" stroke-width="1.23994" stroke-miterlimit="1"/>
<path d="M244.451 244.918L58.3201 197.786L174.96 65.9286L361.091 113.061L244.451 244.918Z" fill="#786B6B" stroke="#3C3536" stroke-width="1.23994" stroke-miterlimit="1"/>
<path d="M127.811 376.775L58.32 197.786L174.96 65.9286L244.451 244.918L127.811 376.775Z" fill="#C8B2B3" stroke="#3C3536" stroke-width="1.23994" stroke-miterlimit="1"/>
<path d="M127.811 376.775L313.942 423.908L430.582 292.05L244.451 244.918L127.811 376.775Z" fill="#A08E8F" stroke="#3C3536" stroke-width="1.23994" stroke-miterlimit="1"/>
<path d="M430.582 292.05L361.091 113.061L174.96 65.9286L244.451 244.918L430.582 292.05Z" fill="#B4A0A1" stroke="#3C3536" stroke-width="1.23994" stroke-miterlimit="1"/>
</svg>
